<?xml version="1.0" encoding="utf-8"?>
<!-- Generator: Adobe Illustrator 16.0.0, SVG Export Plug-In . SVG Version: 6.00 Build 0)  -->
<!DOCTYPE svg PUBLIC "-//W3C//DTD SVG 1.1//EN" "http://www.w3.org/Graphics/SVG/1.1/DTD/svg11.dtd">
<svg version="1.1" id="Layer_1" xmlns="http://www.w3.org/2000/svg" xmlns:xlink="http://www.w3.org/1999/xlink" x="0px" y="0px"
	 width="299.794px" height="84.514px" viewBox="0 0 299.794 84.514" enable-background="new 0 0 299.794 84.514"
	 xml:space="preserve">
<path fill="#FFFFFF" d="M139.592,82.316l1.75-4.685c2.757,1.805,4.979,2.712,6.669,2.712c3.048,0,4.578-1.29,4.578-3.86
	c0-1.839-1.476-3.422-4.428-4.738c-2.276-1.039-3.804-1.831-4.596-2.373c-0.791-0.534-1.476-1.147-2.053-1.831
	c-0.586-0.685-1.015-1.415-1.308-2.187c-0.283-0.774-0.427-1.601-0.427-2.49c0-2.294,0.836-4.082,2.499-5.37
	c1.672-1.281,3.85-1.922,6.544-1.922c2.027,0,4.587,0.641,7.68,1.922l-1.405,4.587c-1.963-1.566-3.938-2.348-5.91-2.348
	c-1.184,0-2.18,0.285-2.989,0.836c-0.809,0.56-1.208,1.263-1.208,2.116c0,1.787,1.014,3.137,3.05,4.063l3.537,1.61
	c2.17,0.995,3.752,2.115,4.739,3.386c0.996,1.271,1.485,2.854,1.485,4.766c0,2.498-0.872,4.462-2.632,5.877
	c-1.752,1.413-4.179,2.125-7.29,2.125C144.944,84.513,142.179,83.783,139.592,82.316L139.592,82.316z M115.845,69.977
	c0,6.997,2.48,10.491,7.422,10.491c2.312,0,4.126-0.934,5.433-2.81c1.316-1.877,1.964-4.438,1.964-7.682
	c0-6.917-2.462-10.366-7.397-10.366c-2.257,0-4.053,0.916-5.404,2.755C116.519,64.207,115.845,66.75,115.845,69.977L115.845,69.977z
	 M110.635,69.977c0-4.312,1.164-7.788,3.484-10.438c2.311-2.64,5.37-3.965,9.147-3.965c4.001,0,7.094,1.273,9.299,3.815
	s3.308,6.071,3.308,10.588c0,4.499-1.128,8.046-3.387,10.641c-2.25,2.597-5.326,3.895-9.22,3.895c-3.974,0-7.076-1.316-9.299-3.939
	C111.745,77.952,110.635,74.421,110.635,69.977L110.635,69.977z M100.813,83.989V67.764c0-2.97-0.445-5.05-1.342-6.241
	c-0.889-1.192-2.391-1.788-4.491-1.788c-1.128,0-2.31,0.348-3.545,1.024c-1.228,0.675-2.18,1.51-2.837,2.499v20.732h-4.943
	l0.005-27.249h4.931l0.007,2.951c1.635-2.748,4.303-4.118,8.001-4.118c6.108,0,9.166,3.717,9.166,11.15v17.266H100.813
	L100.813,83.989z M75.753,56.25l0.032,27.739H70.8V56.297c0.738,0.349,1.544,0.521,2.417,0.521
	C74.138,56.818,74.987,56.632,75.753,56.25L75.753,56.25z M58.548,70.287c-1.564-0.344-2.658-0.522-3.28-0.522
	c-2.498,0-4.543,0.647-6.118,1.927c-1.581,1.291-2.373,2.811-2.373,4.562c0,2.898,1.706,4.349,5.129,4.349
	c2.499,0,4.713-1.192,6.642-3.565V70.287L58.548,70.287z M59.02,80.788c-1.984,2.48-5.016,3.725-9.086,3.725
	c-2.197,0-4.09-0.8-5.699-2.383c-1.601-1.592-2.409-3.565-2.409-5.93c0-2.828,1.245-5.219,3.715-7.175
	c2.473-1.957,5.628-2.935,9.468-2.935c1.041,0,2.223,0.232,3.539,0.677c0-4.507-2.009-6.766-6.036-6.766
	c-3.094,0-5.477,0.827-7.14,2.5l-2.089-4.143c0.943-0.764,2.241-1.415,3.895-1.966c1.662-0.55,3.246-0.818,4.757-0.818
	c4.044,0,6.987,0.917,8.818,2.757c1.832,1.841,2.747,4.765,2.747,8.785v10.001c0,2.445,0.729,4.081,2.187,4.891v2.48
	c-2.017,0-3.521-0.295-4.515-0.863C60.167,83.055,59.455,82.104,59.02,80.788L59.02,80.788z M33.112,83.989l-4.533-24.511
	l-8.331,25.035h-1.308L10.37,59.478L5.943,83.989H1l7.13-38.158h2.373l9.086,27.844l8.393-27.844h2.338l7.743,38.158H33.112
	L33.112,83.989z M73.225,47.754c0.925,0,1.724,0.322,2.378,0.985c0.663,0.653,0.984,1.443,0.984,2.359
	c0,0.927-0.321,1.727-0.984,2.38c-0.654,0.663-1.453,0.985-2.378,0.985c-0.918,0-1.708-0.322-2.362-0.985
	c-0.653-0.653-0.984-1.453-0.984-2.38c0-0.937,0.322-1.726,0.974-2.378C71.498,48.076,72.289,47.754,73.225,47.754z"/>
<path fill-rule="evenodd" clip-rule="evenodd" fill="#E9B750" d="M132.493,0c81.006,0,146.699,12.332,146.699,27.54
	c0,4.026-4.61,7.851-12.888,11.298C235.881,18.348,170.08,4.157,93.81,4.157c-21.213,0-41.616,1.098-60.676,3.124
	C59.269,2.761,94.163,0,132.493,0L132.493,0z M192.7,48.376c0.817,0,1.501,0.285,2.07,0.853c0.562,0.562,0.845,1.253,0.845,2.063
	c0,0.818-0.283,1.511-0.845,2.088c-0.568,0.57-1.253,0.863-2.07,0.863c-0.818,0-1.512-0.293-2.09-0.863
	c-0.57-0.577-0.853-1.27-0.853-2.088c0-0.81,0.283-1.502,0.853-2.063C191.188,48.661,191.882,48.376,192.7,48.376L192.7,48.376z
	 M204.995,48.376c0.81,0,1.512,0.285,2.081,0.853c0.568,0.562,0.863,1.253,0.863,2.063c0,0.818-0.294,1.511-0.863,2.088
	c-0.569,0.57-1.271,0.863-2.081,0.863c-0.818,0-1.512-0.293-2.072-0.863c-0.568-0.577-0.853-1.27-0.853-2.088
	c0-0.81,0.285-1.502,0.853-2.063C203.483,48.661,204.176,48.376,204.995,48.376L204.995,48.376z M162.4,83.989V45.831h5.21v33.471
	h17.248v4.687H162.4L162.4,83.989z M204.781,80.788c-1.983,2.48-5.013,3.727-9.085,3.727c-2.195,0-4.09-0.802-5.699-2.384
	c-1.601-1.592-2.409-3.565-2.409-5.93c0-2.828,1.245-5.22,3.717-7.175c2.472-1.957,5.628-2.935,9.469-2.935
	c1.039,0,2.223,0.232,3.537,0.675c0-4.506-2.009-6.765-6.036-6.765c-3.094,0-5.477,0.827-7.14,2.5l-2.088-4.143
	c0.942-0.766,2.24-1.415,3.895-1.966c1.662-0.55,3.244-0.818,4.756-0.818c4.046,0,6.988,0.917,8.819,2.757
	c1.832,1.841,2.747,4.765,2.747,8.785v10.001c0,2.445,0.728,4.081,2.187,4.891v2.479c-2.019,0-3.521-0.292-4.517-0.861
	C205.928,83.055,205.218,82.104,204.781,80.788L204.781,80.788z M204.31,70.288c-1.564-0.346-2.656-0.523-3.28-0.523
	c-2.497,0-4.542,0.647-6.116,1.927c-1.583,1.291-2.375,2.811-2.375,4.562c0,2.898,1.708,4.349,5.131,4.349
	c2.497,0,4.711-1.192,6.64-3.565V70.288L204.31,70.288z M234.235,83.989V66.457c0-2.08-0.516-3.727-1.538-4.917
	c-1.022-1.201-2.462-1.805-4.321-1.805c-1.2,0-2.4,0.356-3.609,1.059c-1.209,0.702-2.133,1.52-2.773,2.463v20.732h-4.943V44.656
	h4.943v14.511c0.658-1.023,1.726-1.876,3.191-2.569c1.467-0.686,2.979-1.024,4.543-1.024c2.951,0,5.272,0.971,6.943,2.917
	c1.681,1.948,2.516,4.596,2.516,7.967v17.532H234.235L234.235,83.989z M263.876,83.961v-2.053c-1.724,1.716-4.222,2.577-7.504,2.577
	c-3.493,0-6.32-1.252-8.489-3.75c-2.17-2.5-3.254-5.833-3.254-10.003c0-4.186,1.245-7.76,3.751-10.72
	c2.498-2.962,5.477-4.438,8.925-4.438c2.89,0,5.077,0.677,6.57,2.029V44.656h4.943v39.305H263.876L263.876,83.961z M263.876,62.552
	c-1.254-1.875-2.961-2.818-5.129-2.818c-2.658,0-4.81,0.997-6.445,2.971c-1.645,1.981-2.463,4.499-2.463,7.557
	c0,6.721,3.05,10.082,9.166,10.082c0.782,0,1.717-0.25,2.81-0.748c1.095-0.488,1.788-1.013,2.063-1.573V62.552L263.876,62.552z
	 M299.402,70.519h-20.111c0,5.443,3.033,9.824,8.784,9.824c2.827,0,5.193-0.827,7.085-2.472l2.082,3.565
	c-0.764,0.766-1.938,1.423-3.521,1.982c-1.973,0.728-4.179,1.095-6.615,1.095c-7.954,0-13.024-6.533-13.024-14.146
	c0-7.605,4.945-14.795,13.079-14.795c7.25,0,12.633,4.452,12.633,11.924C299.794,68.599,299.659,69.603,299.402,70.519
	L299.402,70.519z M287.399,59.734c-4.197,0-7.569,3.005-7.974,7.193h15.441C294.867,62.602,291.649,59.734,287.399,59.734z"/>
</svg>
