<?xml version="1.0" encoding="utf-8"?>
<!-- Generator: Adobe Illustrator 16.0.0, SVG Export Plug-In . SVG Version: 6.00 Build 0)  -->
<!DOCTYPE svg PUBLIC "-//W3C//DTD SVG 1.1//EN" "http://www.w3.org/Graphics/SVG/1.1/DTD/svg11.dtd">
<svg version="1.1" id="Layer_1" xmlns="http://www.w3.org/2000/svg" xmlns:xlink="http://www.w3.org/1999/xlink" x="0px" y="0px"
	 width="299.9px" height="91.4px" viewBox="0 0 299.9 91.4" enable-background="new 0 0 299.9 91.4" xml:space="preserve">
<g>
	<path fill="#FFFFFF" d="M45.4,85.9v-15.6h5.2c1.2,0,2.3,0.199,3.2,0.6c0.899,0.4,1.699,1,2.3,1.7c0.6,0.7,1.1,1.5,1.399,2.5
		c0.301,0.899,0.5,2,0.5,3c0,1.2-0.199,2.3-0.5,3.2c-0.3,1-0.8,1.8-1.5,2.5C55.4,84.5,54.6,85,53.7,85.4
		c-0.899,0.4-1.899,0.6-3.1,0.6h-5.2V85.9z M56.9,78.1c0-1-0.1-1.9-0.4-2.7c-0.3-0.8-0.699-1.5-1.199-2.1
		c-0.5-0.601-1.2-1.101-2-1.4c-0.801-0.3-1.7-0.5-2.7-0.5H46.5V85H50.6c1,0,1.899-0.199,2.7-0.5c0.8-0.3,1.399-0.8,2-1.399
		c0.5-0.601,0.899-1.3,1.199-2.2C56.801,80,56.9,79.1,56.9,78.1z"/>
	<path fill="#FFFFFF" d="M60.9,71.9v-2H62v2H60.9z M60.9,85.9V74.5H62V86h-1.1V85.9z"/>
	<path fill="#FFFFFF" d="M70,86.1c-0.8,0-1.5-0.2-2.199-0.5c-0.7-0.3-1.2-0.8-1.7-1.3S65.2,83.1,65,82.4
		C64.7,81.7,64.6,81,64.6,80.2S64.7,78.7,65,78C65.301,77.301,65.6,76.6,66.1,76.1s1-1,1.7-1.3c0.699-0.301,1.399-0.5,2.1-0.5
		c1,0,1.9,0.3,2.6,0.8c0.7,0.5,1.4,1.2,1.9,1.899v-2.5h1v11.7c0,0.8-0.1,1.5-0.4,2c-0.3,0.601-0.699,1.101-1.199,1.5
		c-0.5,0.4-1.101,0.7-1.7,0.9c-0.7,0.2-1.3,0.3-2.101,0.3c-0.699,0-1.3-0.1-1.8-0.2c-0.5-0.1-1-0.3-1.399-0.5
		C66.4,90,66,89.7,65.7,89.4s-0.6-0.7-0.8-1.1l0.7-0.5c0.5,0.8,1.1,1.3,1.8,1.699c0.8,0.4,1.6,0.5,2.5,0.5c0.6,0,1.1-0.1,1.7-0.199
		c0.5-0.2,1-0.4,1.399-0.7c0.4-0.3,0.7-0.7,0.9-1.2s0.3-1,0.3-1.7v-2.5c-0.5,0.7-1.1,1.3-1.899,1.8C71.7,85.9,70.9,86.1,70,86.1z
		 M70.301,85.2c0.5,0,1-0.1,1.399-0.3c0.5-0.2,0.9-0.4,1.2-0.7c0.4-0.3,0.7-0.6,0.9-1C74,82.801,74.2,82.5,74.2,82.1v-3.8
		c-0.2-0.4-0.399-0.801-0.7-1.2c-0.3-0.4-0.6-0.7-1-1c-0.399-0.3-0.8-0.5-1.199-0.601c-0.4-0.199-0.9-0.199-1.301-0.199
		c-0.699,0-1.3,0.1-1.8,0.399s-1,0.7-1.399,1.101c-0.4,0.5-0.7,1-0.9,1.6s-0.3,1.2-0.3,1.8c0,0.7,0.1,1.3,0.399,1.9
		c0.2,0.6,0.601,1.1,1,1.6c0.4,0.5,0.9,0.8,1.5,1.101C69,85,69.6,85.2,70.301,85.2z"/>
	<path fill="#FFFFFF" d="M78.801,71.9v-2h1.1v2H78.801z M78.801,85.9V74.5h1.1V86h-1.1V85.9z"/>
	<path fill="#FFFFFF" d="M88.4,85.4c-0.1,0-0.2,0.1-0.3,0.2c-0.101,0.1-0.3,0.2-0.5,0.2c-0.2,0.1-0.5,0.1-0.7,0.199
		C86.7,86.1,86.301,86.1,86,86.1c-0.3,0-0.6,0-0.899-0.101c-0.3-0.1-0.5-0.199-0.7-0.399S84,85.2,83.9,85
		c-0.1-0.199-0.2-0.5-0.2-0.899V75.5h-1.6V74.6h1.6v-3.9h1.101v3.9H87.5V75.5h-2.699v8.4c0,0.4,0.1,0.7,0.399,1
		c0.3,0.2,0.601,0.3,1,0.3c0.5,0,0.8-0.1,1.2-0.2c0.4-0.1,0.5-0.3,0.6-0.3L88.4,85.4z"/>
	<path fill="#FFFFFF" d="M93.1,86.2c-0.5,0-1-0.1-1.5-0.3s-0.9-0.4-1.2-0.7s-0.6-0.7-0.8-1.1c-0.2-0.4-0.3-0.9-0.3-1.4
		s0.1-1,0.399-1.399c0.2-0.4,0.601-0.801,1-1.101c0.4-0.3,0.9-0.5,1.5-0.7c0.601-0.199,1.2-0.3,1.9-0.3c0.6,0,1.2,0.101,1.899,0.2
		c0.601,0.1,1.2,0.3,1.7,0.5v-1.1c0-1.101-0.3-1.9-0.899-2.601c-0.601-0.6-1.5-1-2.5-1c-0.601,0-1.2,0.101-1.801,0.4
		c-0.6,0.2-1.3,0.6-1.899,1l-0.4-0.7c1.5-1,2.9-1.5,4.2-1.5c1.4,0,2.5,0.4,3.3,1.2s1.2,1.899,1.2,3.3v5.6c0,0.4,0.2,0.5,0.5,0.5v1
		c-0.1,0-0.1,0-0.2,0c-0.1,0-0.1,0-0.2,0c-0.3,0-0.5-0.1-0.699-0.3C98.1,85.5,98,85.301,98,85v-1c-0.5,0.7-1.199,1.2-2,1.601
		C95,86,94.1,86.2,93.1,86.2z M93.4,85.301c0.9,0,1.6-0.2,2.4-0.5c0.699-0.301,1.3-0.7,1.6-1.301c0.2-0.3,0.4-0.6,0.4-0.899v-2
		C96.7,80.2,95.5,80,94.4,80s-2.1,0.2-2.8,0.7S90.5,81.801,90.5,82.5c0,0.4,0.101,0.7,0.2,1.101c0.101,0.3,0.4,0.6,0.601,0.899
		c0.3,0.2,0.6,0.4,0.899,0.601C92.6,85.2,92.9,85.301,93.4,85.301z"/>
	<path fill="#FFFFFF" d="M102.2,69.9h1.101v13.8c0,0.4,0.1,0.8,0.399,1c0.2,0.3,0.601,0.4,1,0.4c0.2,0,0.4,0,0.601-0.101
		c0.199,0,0.399-0.1,0.6-0.199l0.2,0.899c-0.2,0.101-0.601,0.2-0.9,0.3c-0.399,0.101-0.7,0.101-0.899,0.101
		c-0.601,0-1.101-0.2-1.5-0.601C102.4,85.1,102.2,84.6,102.2,84V69.9z"/>
</g>
<g>
	<path fill="#FFFFFF" d="M127.2,85.9V72.4L121,83h-0.699l-6.2-10.5V86H113V70.301h1.101l6.5,11.199l6.5-11.199h1.1v15.6H127.2z"/>
	<path fill="#FFFFFF" d="M136.9,86.2c-0.8,0-1.6-0.2-2.2-0.5c-0.7-0.3-1.3-0.7-1.8-1.3c-0.5-0.5-0.9-1.2-1.2-1.9
		c-0.3-0.699-0.399-1.5-0.399-2.3s0.1-1.6,0.399-2.3s0.7-1.3,1.2-1.9c0.5-0.5,1.1-1,1.8-1.3s1.4-0.5,2.2-0.5s1.6,0.2,2.2,0.5
		c0.7,0.3,1.3,0.7,1.8,1.3c0.5,0.601,0.9,1.2,1.2,1.9s0.399,1.5,0.399,2.3c0,0.101,0,0.2,0,0.3c0,0.101,0,0.2,0,0.2h-10.1
		c0,0.7,0.2,1.3,0.5,1.8c0.3,0.601,0.6,1.101,1,1.5c0.4,0.4,0.9,0.7,1.4,1c0.5,0.2,1.1,0.4,1.699,0.4c0.4,0,0.801-0.1,1.2-0.2
		c0.4-0.1,0.7-0.3,1.101-0.5c0.3-0.2,0.6-0.399,0.899-0.7c0.3-0.3,0.5-0.6,0.601-0.899l1,0.3c-0.2,0.4-0.4,0.8-0.7,1.1
		c-0.3,0.301-0.7,0.601-1.101,0.9c-0.399,0.3-0.899,0.4-1.399,0.6C138,86.1,137.5,86.2,136.9,86.2z M141.4,79.801
		c0-0.7-0.2-1.301-0.5-1.801s-0.6-1-1-1.399c-0.4-0.4-0.9-0.7-1.4-0.9s-1.1-0.3-1.699-0.3c-0.601,0-1.2,0.1-1.7,0.3s-1,0.5-1.4,0.9
		c-0.399,0.399-0.7,0.899-1,1.5c-0.2,0.6-0.399,1.2-0.399,1.8h9.1V79.801z"/>
	<path fill="#FFFFFF" d="M149.6,86.2c-0.8,0-1.5-0.2-2.2-0.5s-1.3-0.8-1.8-1.3s-0.9-1.2-1.101-1.9
		c-0.199-0.699-0.399-1.399-0.399-2.199c0-0.801,0.1-1.5,0.399-2.301c0.301-0.8,0.601-1.399,1.101-1.899s1-1,1.7-1.3
		c0.6-0.301,1.3-0.5,2.1-0.5c0.5,0,1,0.1,1.4,0.199C151.2,74.6,151.7,74.801,152,75.1c0.301,0.3,0.7,0.5,1,0.8
		c0.301,0.3,0.601,0.7,0.801,1v-7.1h1.1v14.5c0,0.399,0.2,0.5,0.5,0.5v1c-0.1,0-0.1,0-0.2,0c-0.1,0-0.1,0-0.2,0
		c-0.3,0-0.6-0.101-0.8-0.301c-0.2-0.199-0.3-0.399-0.3-0.699V83.5c-0.5,0.801-1.1,1.4-1.9,1.801C151.2,85.7,150.5,86.2,149.6,86.2z
		 M149.801,85.2c0.399,0,0.8-0.1,1.3-0.2c0.5-0.1,0.899-0.399,1.3-0.699c0.4-0.301,0.7-0.601,1-1c0.3-0.4,0.4-0.801,0.5-1.2v-3.8
		c-0.2-0.4-0.4-0.801-0.7-1.2c-0.3-0.4-0.6-0.7-1-1c-0.399-0.3-0.8-0.5-1.2-0.601c-0.399-0.199-0.899-0.199-1.3-0.199
		c-0.7,0-1.3,0.1-1.8,0.399s-1,0.7-1.4,1.101c-0.399,0.5-0.699,1-0.899,1.6s-0.3,1.2-0.3,1.8c0,0.7,0.1,1.3,0.399,1.9
		c0.2,0.6,0.601,1.1,1,1.6c0.4,0.5,0.9,0.8,1.5,1.101C148.6,85,149.2,85.2,149.801,85.2z"/>
	<path fill="#FFFFFF" d="M158.5,71.9v-2h1.101v2H158.5z M158.5,85.9V74.5h1.101V86H158.5V85.9z"/>
	<path fill="#FFFFFF" d="M165.801,86.2c-0.5,0-1-0.1-1.5-0.3s-0.9-0.4-1.2-0.7s-0.601-0.7-0.8-1.1c-0.2-0.4-0.301-0.9-0.301-1.4
		s0.101-1,0.4-1.399c0.2-0.4,0.6-0.801,1-1.101s0.9-0.5,1.5-0.7c0.6-0.199,1.2-0.3,1.9-0.3c0.6,0,1.199,0.101,1.899,0.2
		c0.601,0.1,1.2,0.3,1.7,0.5v-1.1c0-1.101-0.3-1.9-0.9-2.601c-0.6-0.7-1.5-1-2.5-1c-0.6,0-1.199,0.101-1.8,0.4
		c-0.6,0.2-1.3,0.6-1.899,1l-0.4-0.7c1.5-1,2.9-1.5,4.2-1.5c1.399,0,2.5,0.4,3.3,1.2s1.2,1.899,1.2,3.3v5.6c0,0.4,0.2,0.5,0.5,0.5v1
		c-0.101,0-0.101,0-0.2,0s-0.1,0-0.2,0c-0.3,0-0.5-0.1-0.7-0.3c-0.199-0.2-0.3-0.399-0.3-0.7v-1c-0.5,0.7-1.2,1.2-2,1.601
		C167.6,86,166.801,86.2,165.801,86.2z M166,85.301c0.9,0,1.601-0.2,2.4-0.5c0.7-0.301,1.3-0.7,1.6-1.301c0.2-0.3,0.4-0.6,0.4-0.899
		v-2c-1.1-0.4-2.3-0.601-3.4-0.601c-1.1,0-2.1,0.2-2.8,0.7s-1.1,1.101-1.1,1.8c0,0.4,0.1,0.7,0.2,1.101c0.1,0.3,0.399,0.6,0.6,0.899
		c0.3,0.2,0.6,0.4,0.9,0.601C165.2,85.2,165.6,85.301,166,85.301z"/>
</g>
<g>
	<path fill="#FFFFFF" d="M189.301,72.9c-1-1.1-2.4-1.7-4.301-1.7c-1.5,0-2.6,0.3-3.3,0.9c-0.7,0.6-1,1.399-1,2.3
		c0,0.5,0.101,0.9,0.3,1.3c0.2,0.3,0.5,0.601,0.801,0.8c0.3,0.2,0.899,0.4,1.399,0.601c0.601,0.2,1.3,0.3,2.101,0.5
		c0.899,0.2,1.6,0.399,2.3,0.6s1.3,0.5,1.7,0.8c0.5,0.301,0.8,0.7,1.1,1.2s0.4,1,0.4,1.7s-0.101,1.3-0.4,1.8s-0.7,0.9-1.1,1.3
		c-0.5,0.301-1.101,0.601-1.801,0.801c-0.699,0.199-1.399,0.3-2.3,0.3c-2.399,0-4.5-0.8-6.2-2.3l0.601-0.9
		c0.7,0.7,1.5,1.2,2.399,1.6c1,0.4,2,0.601,3.2,0.601c1.4,0,2.4-0.3,3.2-0.7c0.8-0.5,1.2-1.3,1.2-2.3c0-0.5-0.101-1-0.3-1.3
		c-0.2-0.4-0.5-0.7-0.9-0.9c-0.4-0.3-0.9-0.5-1.5-0.7s-1.3-0.399-2.1-0.6C184,78.4,183.2,78.2,182.6,78
		C182,77.801,181.4,77.6,181,77.301c-0.399-0.301-0.8-0.7-1-1.101c-0.199-0.399-0.3-1-0.3-1.6c0-0.7,0.101-1.3,0.4-1.9
		c0.3-0.5,0.6-1,1.1-1.399c0.5-0.4,1.101-0.7,1.7-0.801c0.7-0.199,1.4-0.3,2.2-0.3c1,0,1.899,0.2,2.7,0.5c0.8,0.3,1.5,0.8,2.199,1.4
		L189.301,72.9z"/>
	<path fill="#FFFFFF" d="M198.1,86.2c-0.8,0-1.601-0.2-2.2-0.5c-0.7-0.3-1.3-0.7-1.8-1.3s-0.9-1.2-1.2-1.9
		c-0.3-0.699-0.4-1.5-0.4-2.3s0.101-1.6,0.4-2.3s0.7-1.4,1.2-1.9s1.1-1,1.8-1.3s1.4-0.5,2.2-0.5s1.5,0.2,2.2,0.5
		c0.699,0.3,1.3,0.7,1.8,1.3c0.5,0.5,0.899,1.2,1.2,1.9c0.3,0.7,0.399,1.5,0.399,2.3s-0.1,1.5-0.399,2.3c-0.301,0.7-0.7,1.4-1.2,1.9
		s-1.101,1-1.8,1.3C199.6,86,198.9,86.2,198.1,86.2z M193.6,80.301c0,0.699,0.1,1.3,0.399,1.899c0.2,0.601,0.601,1.101,1,1.601
		c0.4,0.399,0.9,0.8,1.4,1c0.5,0.199,1.1,0.399,1.7,0.399c0.6,0,1.2-0.1,1.7-0.399c0.5-0.301,1-0.601,1.399-1.101
		c0.4-0.5,0.7-1,1-1.6c0.2-0.601,0.4-1.2,0.4-1.9s-0.101-1.3-0.4-1.899c-0.2-0.601-0.6-1.101-1-1.601
		c-0.399-0.399-0.899-0.8-1.399-1.1s-1.101-0.4-1.7-0.4c-0.601,0-1.2,0.101-1.7,0.4s-1,0.6-1.4,1.1c-0.399,0.5-0.699,1-1,1.601
		C193.7,79,193.6,79.6,193.6,80.301z"/>
	<path fill="#FFFFFF" d="M206.4,69.9h1.1v13.8c0,0.4,0.101,0.8,0.4,1s0.6,0.4,1,0.4c0.2,0,0.4,0,0.6-0.101
		c0.2,0,0.4-0.1,0.601-0.199l0.2,0.899c-0.301,0.101-0.601,0.2-0.9,0.3c-0.4,0.101-0.7,0.101-0.9,0.101c-0.6,0-1.1-0.2-1.5-0.601
		c-0.399-0.399-0.6-0.899-0.6-1.5V69.9z"/>
	<path fill="#FFFFFF" d="M215.301,86.2c-2.5,0-3.7-1.7-3.7-5.1V74.5h1.1V81c0,2.801,1,4.2,2.9,4.2c0.5,0,1-0.1,1.399-0.3
		c0.5-0.2,0.9-0.4,1.301-0.7c0.399-0.3,0.699-0.7,1-1.1c0.3-0.4,0.5-0.9,0.699-1.4v-7.2h1.101v9.9c0,0.4,0.2,0.5,0.5,0.5v1
		c-0.101,0-0.2,0-0.2,0s-0.1,0-0.2,0c-0.3,0-0.6-0.1-0.8-0.3s-0.3-0.4-0.3-0.7v-1.7c-0.5,0.9-1.2,1.601-2.101,2.2
		C217.301,85.9,216.301,86.2,215.301,86.2z"/>
	<path fill="#FFFFFF" d="M229.801,85.4c-0.101,0-0.2,0.1-0.301,0.2c-0.1,0.1-0.3,0.2-0.5,0.2c-0.199,0.1-0.5,0.1-0.699,0.199
		c-0.2,0.101-0.601,0.101-0.9,0.101s-0.6,0-0.9-0.101c-0.3-0.1-0.5-0.199-0.699-0.399c-0.2-0.2-0.4-0.4-0.5-0.601
		c-0.101-0.199-0.2-0.5-0.2-0.899V75.5H223.5V74.6h1.601v-3.9h1.1v3.9h2.7V75.5h-2.7v8.4c0,0.4,0.101,0.7,0.4,1
		c0.3,0.2,0.6,0.3,1,0.3c0.5,0,0.8-0.1,1.2-0.2c0.399-0.1,0.5-0.3,0.6-0.3L229.801,85.4z"/>
	<path fill="#FFFFFF" d="M231.7,71.9v-2h1.101v2H231.7z M231.7,85.9V74.5h1.101V86H231.7V85.9z"/>
	<path fill="#FFFFFF" d="M241,86.2c-0.8,0-1.6-0.2-2.199-0.5c-0.7-0.3-1.301-0.7-1.801-1.3s-0.899-1.2-1.199-1.9
		c-0.301-0.699-0.4-1.5-0.4-2.3s0.1-1.6,0.4-2.3c0.3-0.7,0.699-1.4,1.199-1.9s1.101-1,1.801-1.3c0.699-0.3,1.399-0.5,2.199-0.5
		c0.801,0,1.5,0.2,2.2,0.5s1.3,0.7,1.8,1.3c0.5,0.5,0.9,1.2,1.2,1.9s0.4,1.5,0.4,2.3s-0.101,1.5-0.4,2.3c-0.3,0.7-0.7,1.4-1.2,1.9
		s-1.1,1-1.8,1.3S241.801,86.2,241,86.2z M236.5,80.301c0,0.699,0.101,1.3,0.4,1.899c0.2,0.601,0.6,1.101,1,1.601
		c0.4,0.399,0.9,0.8,1.4,1C239.801,85,240.4,85.2,241,85.2c0.601,0,1.2-0.1,1.7-0.399c0.5-0.301,1-0.601,1.4-1.101
		c0.399-0.5,0.7-1,1-1.6c0.2-0.601,0.399-1.2,0.399-1.9s-0.1-1.3-0.399-1.899c-0.2-0.601-0.601-1.101-1-1.601
		c-0.4-0.399-0.9-0.8-1.4-1.1s-1.1-0.4-1.7-0.4c-0.6,0-1.199,0.101-1.699,0.4s-1,0.6-1.4,1.1s-0.7,1-1,1.601
		C236.7,79,236.5,79.6,236.5,80.301z"/>
	<path fill="#FFFFFF" d="M258.6,85.9H257.5v-6.4c0-1.5-0.199-2.6-0.6-3.199c-0.4-0.7-1.1-1-2-1c-0.5,0-1,0.1-1.4,0.3
		c-0.5,0.2-0.899,0.399-1.3,0.7c-0.399,0.3-0.8,0.699-1.1,1.1s-0.5,0.9-0.7,1.4v7.1h-1.1V74.5h1v2.7c0.199-0.399,0.5-0.8,0.899-1.2
		c0.4-0.399,0.7-0.699,1.2-0.899c0.4-0.3,0.9-0.5,1.4-0.601c0.5-0.1,1-0.199,1.5-0.199c1.199,0,2.1,0.399,2.6,1.3
		c0.5,0.899,0.8,2.1,0.8,3.8v6.5H258.6z"/>
</g>
<polygon fill="#58595B" points="23.6,55.801 23.9,56.301 39,56.301 62.7,0 45.301,0 40.9,11.2 "/>
<rect x="68" y="0" fill="#58595B" width="15.101" height="56.301"/>
<path fill="#58595B" d="M138.4,52.5c2.8-2.6,4.2-6.1,4.2-10.5v-6.5c0-4.699-1.3-8.1-4-10.1c-2.4-1.8-6.101-2.7-11.101-2.7h-19.699
	c-2.9,0-4.301-1.6-4.301-4.8v-0.1c0-1.301,0.4-2.4,1.101-3.4s1.7-1.5,2.899-1.5h35.2V0h-39.2c-5,0-8.699,0.9-11.1,2.7
	c-2.7,2-4,5.4-4,10.101v7.1c0,4.5,1.4,8,4.2,10.6c2.8,2.601,6.5,3.801,10.899,3.801H123.6c2.6,0.5,3.899,2.1,3.899,4.8v0.1
	c0,3.101-1.399,4.7-4.3,4.7H88.301v12.4h39.1C131.9,56.301,135.5,55.1,138.4,52.5"/>
<path fill="#58595B" d="M299.9,56.301v-42c0-4.601-1.4-8.2-4.2-10.801c-2.7-2.399-6.3-3.6-11-3.6H207v56.3H222.1V12.801h17.1
	c2.3,0,3.9,0.399,4.9,1.1c1.2,0.8,1.8,2.3,1.8,4.4v38.1H261v-43.6H278.1c2.3,0,3.899,0.399,4.899,1.1c1.2,0.8,1.801,2.3,1.801,4.4
	v38.1h15.1V56.301z"/>
<g>
	<g>
		<defs>
			<polygon id="SVGID_1_" points="17.4,0 0,0 23.6,55.7 31.5,35.4 			"/>
		</defs>
		<clipPath id="SVGID_2_">
			<use xlink:href="#SVGID_1_"  overflow="visible"/>
		</clipPath>
		
			<linearGradient id="SVGID_3_" gradientUnits="userSpaceOnUse" x1="-3326.9407" y1="2829.0535" x2="-3326.1414" y2="2829.0535" gradientTransform="matrix(66.1254 25.6484 25.8958 -66.7634 146720.3125 274224.1563)">
			<stop  offset="0" style="stop-color:#F58220"/>
			<stop  offset="0.49" style="stop-color:#DD741F"/>
			<stop  offset="1" style="stop-color:#C7691C"/>
		</linearGradient>
		<polygon clip-path="url(#SVGID_2_)" fill="url(#SVGID_3_)" points="-18.8,48.4 27.301,66.301 50.2,7.301 4.1,-10.6 		"/>
	</g>
</g>
<path fill="#58595B" d="M186.301,43.5V12.801H169.2c-2.2,0-3.8,0.399-4.8,1.1c-1.2,0.8-1.8,2.3-1.8,4.4v2.3v17.5
	c0,2.1,0.6,3.5,1.8,4.399c1,0.7,2.6,1.101,4.8,1.101h17.101V43.5z M162.5,0h23.7l0,0h15.101l0,0v56.301l0,0H186.2l0,0h-23.7l0,0
	h-15.1V42V20.6v-6.2c0-4.6,1.4-8.2,4.1-10.7C154.2,1.2,157.9,0,162.5,0z"/>
</svg>
